<svg width="93" height="93" viewBox="0 0 93 93" fill="none" xmlns="http://www.w3.org/2000/svg">
<path d="M53.573 54.9391C50.3547 38.3657 35.172 30.8338 19.6769 33.7688C21.4535 24.47 30.1592 16.8668 35.8162 9.79891C36.6185 8.79665 37.0319 7.03402 35.8162 6.08958C32.834 3.77282 30.0508 3.05149 27.4868 3.41721C27.309 2.93054 26.8383 2.5677 26.2268 2.75996C17.126 5.62556 11.2324 15.347 7.2894 23.4036C2.08632 34.0372 -0.523886 46.3472 0.0875882 58.1632C1.05178 76.7917 17.684 94.5549 37.4897 89.3831C51.9487 85.6078 56.0527 67.7092 53.573 54.9391ZM16.5155 69.8458C16.5169 69.8395 16.5208 69.8357 16.5222 69.8299C16.6128 69.4806 16.6904 69.1278 16.7728 68.7756C17.0495 69.1351 17.2926 69.5193 17.4989 69.9234C17.1592 69.9677 16.8287 69.9961 16.5126 70.0029C16.5107 69.9479 16.5174 69.8988 16.5155 69.8458ZM12.3262 26.129C12.5669 26.2318 12.8221 26.2963 13.0827 26.3203C12.3068 27.8712 11.5961 29.4538 10.9525 31.0641C10.6974 30.989 10.4329 30.9504 10.167 30.9495C10.8214 29.316 11.5538 27.7138 12.3262 26.129ZM10.3395 73.4154C10.9718 74.0642 11.6344 74.6826 12.3253 75.2686C12.222 75.4028 12.1326 75.5472 12.0583 75.6994C11.4387 74.9742 10.8537 74.2206 10.3395 73.4154ZM28.2029 73.3513C27.4049 72.3095 26.8021 71.1593 26.4234 69.9031C26.4124 69.8055 26.3819 69.7112 26.3338 69.6256C26.2144 69.1873 26.125 68.7413 26.0663 68.2908C27.3751 70.0699 28.4269 72.0512 29.4027 74.0538C28.9807 73.8595 28.5788 73.6242 28.2029 73.3513Z" fill="#D4D4D4" fill-opacity="0.6"/>
<path d="M56.5908 30.7716C58.3424 23.697 63.1195 18.8134 66.5898 12.4331C67.1541 11.3957 66.9324 9.78242 65.7509 9.23359C63.5907 8.22988 61.6493 7.11631 59.4897 6.28993C58.8358 4.89592 56.8621 3.98088 55.351 5.3426C52.6791 7.75044 49.762 10.8386 47.4312 14.2887C44.3406 18.08 42.1212 22.6817 41.384 27.108C41.2967 27.6323 41.3873 28.1638 41.5926 28.6485C41.4813 28.8417 41.3695 29.0325 41.2577 29.2262C40.6935 30.2039 41.0149 31.5179 42.007 32.0841C53.771 38.7916 58.6373 49.7133 58.2908 61.221C57.6952 62.8997 57.5439 64.713 57.7709 66.5358C56.8187 72.3268 54.6384 78.1254 51.4181 83.4807C50.6944 84.6839 50.9642 85.81 51.6706 86.5733C51.8556 87.1756 52.3418 87.6849 53.2159 87.8825C71.9707 92.119 90.8387 83.1434 92.8736 62.681C94.7673 43.64 74.9322 27.5932 56.5908 30.7716ZM63.7257 83.6841C63.7917 83.6219 63.8505 83.5535 63.9155 83.4899C65.6372 83.3564 67.2109 82.8726 68.5481 82.0944C68.5635 82.1609 68.5736 82.2221 68.5895 82.2891C68.6329 82.4727 68.7264 82.612 68.801 82.769C67.1334 83.1954 65.4372 83.5012 63.7257 83.6841ZM77.0282 47.8856C76.8504 48.2118 76.6943 48.5395 76.5372 48.8676C76.5247 48.7761 76.5228 48.6816 76.5088 48.5901C76.5324 47.9126 76.6519 47.2144 76.836 46.5027C76.8557 46.5162 76.8779 46.5277 76.8977 46.5412C76.9921 46.9335 77.0692 47.3334 77.1294 47.7406C77.0981 47.7907 77.0576 47.8326 77.0282 47.8856ZM85.9883 68.4194C85.9956 67.9722 85.9883 67.5217 85.9724 67.0683C86.2686 66.5711 86.5341 66.0564 86.7675 65.5268C86.5786 66.5392 86.3035 67.4933 85.9883 68.4194Z" fill="#D4D4D4" fill-opacity="0.6"/>
</svg>
