<svg width="84" height="62" viewBox="0 0 84 62" fill="none" xmlns="http://www.w3.org/2000/svg">
<path d="M64.6927 38.8041C65.45 39.5615 65.8754 40.5886 65.8754 41.6596C65.8754 42.7306 65.45 43.7578 64.6927 44.5151C63.9353 45.2724 62.9082 45.6978 61.8372 45.6978C60.7662 45.6978 59.739 45.2724 58.9817 44.5151L55.1218 40.6484V57.7812C55.1218 58.8504 54.6971 59.8758 53.9411 60.6318C53.1851 61.3878 52.1597 61.8125 51.0906 61.8125C50.0214 61.8125 48.996 61.3878 48.24 60.6318C47.484 59.8758 47.0593 58.8504 47.0593 57.7812V40.6484L43.1927 44.5184C42.4353 45.2758 41.4082 45.7012 40.3372 45.7012C39.2662 45.7012 38.239 45.2758 37.4817 44.5184C36.7244 43.7611 36.299 42.734 36.299 41.663C36.299 40.592 36.7244 39.5648 37.4817 38.8075L48.2317 28.0575C48.6062 27.6817 49.0513 27.3835 49.5413 27.18C50.0313 26.9766 50.5566 26.8718 51.0872 26.8718C51.6178 26.8718 52.1431 26.9766 52.6331 27.18C53.1231 27.3835 53.5681 27.6817 53.9427 28.0575L64.6927 38.8041ZM52.4343 0C46.8549 0.00267856 41.38 1.51438 36.5897 4.37497C31.7994 7.23557 27.8719 11.3385 25.2234 16.2493C22.1389 15.9262 19.0208 16.2346 16.0594 17.1557C13.0979 18.0768 10.355 19.5913 7.99789 21.6068C5.64073 23.6224 3.71869 26.0968 2.34889 28.8793C0.979084 31.6618 0.190218 34.6941 0.0303651 37.7913C-0.129488 40.8886 0.34302 43.986 1.41909 46.8947C2.49516 49.8035 4.15226 52.4626 6.28939 54.7101C8.42652 56.9576 10.9989 58.7464 13.8498 59.9675C16.7007 61.1886 19.7704 61.8163 22.8718 61.8125H32.2781C33.3472 61.8125 34.3726 61.3878 35.1286 60.6318C35.8846 59.8758 36.3093 58.8504 36.3093 57.7812C36.3093 56.7121 35.8846 55.6867 35.1286 54.9307C34.3726 54.1747 33.3472 53.75 32.2781 53.75H22.8718C19.02 53.7264 15.3295 52.2001 12.5862 49.4962C9.84295 46.7922 8.26352 43.1242 8.18427 39.2732C8.10501 35.4221 9.53219 31.6922 12.1619 28.8777C14.7917 26.0632 18.4162 24.3864 22.2638 24.2043C21.7741 26.4046 21.5273 28.6521 21.5281 30.9062C21.5281 31.9754 21.9528 33.0008 22.7088 33.7568C23.4648 34.5128 24.4902 34.9375 25.5593 34.9375C26.6285 34.9375 27.6538 34.5128 28.4098 33.7568C29.1658 33.0008 29.5906 31.9754 29.5906 30.9062C29.5933 27.6017 30.313 24.337 31.7 21.3376C33.087 18.3382 35.1082 15.6754 37.6242 13.533C40.1402 11.3905 43.091 9.81948 46.2732 8.92822C49.4553 8.03694 52.7929 7.84668 56.0557 8.37055C59.3185 8.89441 62.4287 10.1199 65.1719 11.9626C67.9151 13.8052 70.2258 16.221 71.9447 19.0434C73.6635 21.8658 74.7496 25.0275 75.1279 28.3103C75.5062 31.5932 75.1677 34.919 74.1359 38.0584C73.9702 38.5613 73.9052 39.0919 73.9446 39.6199C73.9841 40.148 74.1271 40.6631 74.3656 41.1358C74.6041 41.6086 74.9333 42.0297 75.3346 42.3752C75.7358 42.7207 76.2012 42.9838 76.7041 43.1495C77.207 43.3152 77.7377 43.3801 78.2657 43.3407C78.7937 43.3013 79.3088 43.1583 79.7816 42.9198C80.2543 42.6813 80.6755 42.352 81.021 41.9508C81.3665 41.5495 81.6296 41.0842 81.7952 40.5812C83.3211 35.938 83.7247 30.9992 82.9729 26.1698C82.2212 21.3404 80.3356 16.7579 77.4706 12.7981C74.6056 8.83827 70.8429 5.61386 66.491 3.38924C62.1391 1.16462 57.3219 0.00312576 52.4343 0Z" fill="#0B31BD"/>
</svg>
