<svg width="26" height="26" viewBox="0 0 26 26" fill="none" xmlns="http://www.w3.org/2000/svg">
<path d="M20.5788 5.30422C19.5883 4.30403 18.4086 3.51097 17.1085 2.97128C15.8084 2.43158 14.4139 2.15604 13.0063 2.1607C7.10812 2.1607 2.30102 6.9678 2.30102 12.866C2.30102 14.7564 2.79793 16.5928 3.72695 18.2132L2.2146 23.7656L7.8859 22.2749C9.45225 23.1283 11.2131 23.582 13.0063 23.582C18.9044 23.582 23.7115 18.7749 23.7115 12.8768C23.7115 10.0141 22.5989 7.32428 20.5788 5.30422ZM13.0063 21.7672C11.4075 21.7672 9.84114 21.3351 8.46923 20.5249L8.14515 20.3305L4.77478 21.2163L5.67139 17.9323L5.45534 17.5974C4.56689 16.1791 4.09523 14.5395 4.09423 12.866C4.09423 7.96163 8.09114 3.96472 12.9955 3.96472C15.372 3.96472 17.6081 4.89373 19.2825 6.57891C20.1117 7.40407 20.7688 8.38567 21.2157 9.46677C21.6626 10.5479 21.8904 11.7069 21.8859 12.8768C21.9075 17.7811 17.9106 21.7672 13.0063 21.7672ZM17.889 15.1129C17.6189 14.9832 16.301 14.3351 16.0634 14.2379C15.8149 14.1514 15.6421 14.1082 15.4584 14.3675C15.2748 14.6376 14.7671 15.2425 14.6158 15.4153C14.4646 15.599 14.3026 15.6206 14.0325 15.4801C13.7624 15.3505 12.8982 15.0589 11.8828 14.1514C11.0834 13.4385 10.5541 12.5635 10.3921 12.2934C10.2408 12.0234 10.3705 11.8829 10.5109 11.7425C10.6297 11.6237 10.781 11.4292 10.9106 11.278C11.0402 11.1268 11.0942 11.0079 11.1806 10.8351C11.2671 10.6514 11.2239 10.5002 11.159 10.3706C11.0942 10.241 10.5541 8.92305 10.3381 8.38293C10.122 7.86441 9.89515 7.92922 9.73312 7.91842H9.2146C9.03096 7.91842 8.75009 7.98323 8.50164 8.2533C8.26398 8.52336 7.57262 9.17151 7.57262 10.4894C7.57262 11.8073 8.53404 13.082 8.66367 13.2548C8.7933 13.4385 10.5541 16.1391 13.2331 17.295C13.8705 17.5758 14.3674 17.7379 14.7563 17.8567C15.3936 18.0619 15.9769 18.0295 16.4415 17.9647C16.96 17.8891 18.0294 17.3166 18.2455 16.69C18.4723 16.0635 18.4723 15.5342 18.3967 15.4153C18.3211 15.2965 18.159 15.2425 17.889 15.1129Z" fill="white"/>
</svg>
